<?xml version="1.0" encoding="UTF-8" standalone="no"?>
<svg
   xmlns:dc="http://purl.org/dc/elements/1.1/"
   xmlns:cc="http://creativecommons.org/ns#"
   xmlns:rdf="http://www.w3.org/1999/02/22-rdf-syntax-ns#"
   xmlns:svg="http://www.w3.org/2000/svg"
   xmlns="http://www.w3.org/2000/svg"
   id="svg6120"
   version="1.1"
   viewBox="0 0 211.66666 52.916668"
   height="200"
   width="800">
  <defs
     id="defs6114" />
  <metadata
     id="metadata6117">
    <rdf:RDF>
      <cc:Work
         rdf:about="">
        <dc:format>image/svg+xml</dc:format>
        <dc:type
           rdf:resource="http://purl.org/dc/dcmitype/StillImage" />
        <dc:title></dc:title>
      </cc:Work>
    </rdf:RDF>
  </metadata>
  <g
     transform="translate(0,-244.08331)"
     id="layer1">
    <g
       id="text4615"
       style="font-style:normal;font-variant:normal;font-weight:normal;font-stretch:normal;font-size:53.19447327px;line-height:1.25;font-family:Bellerose;-inkscape-font-specification:'Bellerose, Normal';font-variant-ligatures:normal;font-variant-caps:normal;font-variant-numeric:normal;font-feature-settings:normal;text-align:start;letter-spacing:0px;word-spacing:0px;writing-mode:lr-tb;text-anchor:start;fill:#0f5e9f;fill-opacity:0.67206481;stroke:none;stroke-width:1;stroke-miterlimit:4;stroke-dasharray:none;stroke-opacity:1"
       transform="matrix(1.001808,0,0,0.99819526,306.56575,-32.895024)"
       aria-label="whoobe">
      <path
         id="path5820"
         style="font-style:normal;font-variant:normal;font-weight:normal;font-stretch:normal;font-size:53.19447327px;font-family:Bellerose;-inkscape-font-specification:'Bellerose, Normal';font-variant-ligatures:normal;font-variant-caps:normal;font-variant-numeric:normal;font-feature-settings:normal;text-align:start;writing-mode:lr-tb;text-anchor:start;fill:#0f5e9f;fill-opacity:0.67206481;stroke:none;stroke-width:1;stroke-miterlimit:4;stroke-dasharray:none;stroke-opacity:1"
         d="m -236.95076,305.36406 -5.03948,13.10263 -9.51901,-23.62954 h 3.30366 l 6.15936,15.23042 5.09547,-13.27062 5.09547,13.27062 6.15936,-15.23042 h 3.30366 l -9.51901,23.62954 z" />
      <path
         id="path5822"
         style="font-style:normal;font-variant:normal;font-weight:normal;font-stretch:normal;font-size:53.19447327px;font-family:Bellerose;-inkscape-font-specification:'Bellerose, Normal';font-variant-ligatures:normal;font-variant-caps:normal;font-variant-numeric:normal;font-feature-settings:normal;text-align:start;writing-mode:lr-tb;text-anchor:start;fill:#0f5e9f;fill-opacity:0.67206481;stroke:none;stroke-width:1;stroke-miterlimit:4;stroke-dasharray:none;stroke-opacity:1"
         d="m -205.56427,303.34826 q 0,-2.63172 -1.79181,-4.31155 -1.73582,-1.73582 -4.25556,-1.73582 -2.51974,0 -4.31155,1.79182 -1.73582,1.73582 -1.73582,4.25555 v 14.39051 h -3.07968 v -38.07604 h 3.07968 v 16.85424 q 2.57573,-2.29576 6.04737,-2.29576 3.8636,0 6.49532,2.63173 2.63173,2.63173 2.63173,6.49532 v 14.39051 h -3.07968 z" />
      <path
         id="path5824"
         style="font-style:normal;font-variant:normal;font-weight:normal;font-stretch:normal;font-size:53.19447327px;font-family:Bellerose;-inkscape-font-specification:'Bellerose, Normal';font-variant-ligatures:normal;font-variant-caps:normal;font-variant-numeric:normal;font-feature-settings:normal;text-align:start;writing-mode:lr-tb;text-anchor:start;fill:#0f5e9f;fill-opacity:0.67206481;stroke:none;stroke-width:1;stroke-miterlimit:4;stroke-dasharray:none;stroke-opacity:1"
         d="m -187.87361,294.22121 q 5.03948,0 8.56711,3.52764 3.52763,3.52763 3.52763,8.56711 0,4.92748 -3.52763,8.51111 -3.52763,3.58363 -8.56711,3.58363 -4.92749,0 -8.51112,-3.58363 -3.58362,-3.58363 -3.58362,-8.51111 0,-5.03948 3.58362,-8.56711 3.58363,-3.52764 8.51112,-3.52764 z m 0,3.07968 q -3.8076,0 -6.43933,2.63173 -2.57573,2.57573 -2.57573,6.38334 0,3.8076 2.57573,6.43933 2.63173,2.57573 6.43933,2.57573 3.75161,0 6.38334,-2.63173 2.63172,-2.63172 2.63172,-6.38333 0,-3.75161 -2.63172,-6.38334 -2.63173,-2.63173 -6.38334,-2.63173 z" />
      <path
         id="path5826"
         style="font-style:normal;font-variant:normal;font-weight:normal;font-stretch:normal;font-size:53.19447327px;font-family:Bellerose;-inkscape-font-specification:'Bellerose, Normal';font-variant-ligatures:normal;font-variant-caps:normal;font-variant-numeric:normal;font-feature-settings:normal;text-align:start;writing-mode:lr-tb;text-anchor:start;fill:#0f5e9f;fill-opacity:0.67206481;stroke:none;stroke-width:1;stroke-miterlimit:4;stroke-dasharray:none;stroke-opacity:1"
         d="m -162.00364,294.22121 q 5.03948,0 8.56711,3.52764 3.52764,3.52763 3.52764,8.56711 0,4.92748 -3.52764,8.51111 -3.52763,3.58363 -8.56711,3.58363 -4.92749,0 -8.51111,-3.58363 -3.58363,-3.58363 -3.58363,-8.51111 0,-5.03948 3.58363,-8.56711 3.58362,-3.52764 8.51111,-3.52764 z m 0,3.07968 q -3.8076,0 -6.43933,2.63173 -2.57573,2.57573 -2.57573,6.38334 0,3.8076 2.57573,6.43933 2.63173,2.57573 6.43933,2.57573 3.75161,0 6.38334,-2.63173 2.63173,-2.63172 2.63173,-6.38333 0,-3.75161 -2.63173,-6.38334 -2.63173,-2.63173 -6.38334,-2.63173 z" />
      <path
         id="path5828"
         style="font-style:normal;font-variant:normal;font-weight:normal;font-stretch:normal;font-size:53.19447327px;font-family:Bellerose;-inkscape-font-specification:'Bellerose, Normal';font-variant-ligatures:normal;font-variant-caps:normal;font-variant-numeric:normal;font-feature-settings:normal;text-align:start;writing-mode:lr-tb;text-anchor:start;fill:#0f5e9f;fill-opacity:0.67206481;stroke:none;stroke-width:1;stroke-miterlimit:4;stroke-dasharray:none;stroke-opacity:1"
         d="m -132.32607,297.30089 q -3.75161,0 -6.38334,2.63173 -2.63172,2.63173 -2.63172,6.38334 0,3.75161 2.63172,6.38333 2.63173,2.63173 6.38334,2.63173 3.80761,0 6.38334,-2.57573 2.63173,-2.63173 2.63173,-6.43933 0,-3.80761 -2.63173,-6.38334 -2.57573,-2.63173 -6.38334,-2.63173 z m -12.09474,-14.55848 h -3.80761 l 1.67983,-3.07968 h 5.20746 v 18.59006 q 3.63962,-4.03158 9.01506,-4.03158 5.03948,0 8.56711,3.52764 3.52764,3.52763 3.52764,8.56711 0,4.92748 -3.52764,8.51111 -3.52763,3.58363 -8.56711,3.58363 -5.09547,0 -8.73509,-3.75161 l -3.35965,3.07968 z" />
      <path
         id="path5830"
         style="font-style:normal;font-variant:normal;font-weight:normal;font-stretch:normal;font-size:53.19447327px;font-family:Bellerose;-inkscape-font-specification:'Bellerose, Normal';font-variant-ligatures:normal;font-variant-caps:normal;font-variant-numeric:normal;font-feature-settings:normal;text-align:start;writing-mode:lr-tb;text-anchor:start;fill:#0f5e9f;fill-opacity:0.67206481;stroke:none;stroke-width:1;stroke-miterlimit:4;stroke-dasharray:none;stroke-opacity:1"
         d="m -98.468403,310.51552 2.687721,1.51184 q -1.511843,2.85571 -4.367548,4.64752 -2.8557,1.73582 -6.27135,1.73582 -4.92748,0 -8.51111,-3.58363 -3.58363,-3.58363 -3.58363,-8.51111 0,-5.03948 3.58363,-8.56711 3.58363,-3.52764 8.51111,-3.52764 3.13568,0 5.87939,1.56784 2.799712,1.56784 4.311555,3.97559 l -15.622375,13.77457 q 2.35175,1.79181 5.43143,1.79181 2.57574,0 4.64752,-1.28787 2.127779,-1.28786 3.303657,-3.52763 z m -15.454397,0.83991 13.38261,-11.87076 q -2.51974,-2.18378 -5.87939,-2.18378 -3.8076,0 -6.43933,2.63173 -2.57573,2.57573 -2.57573,6.38334 0,2.74371 1.51184,5.03947 z" />
    </g>
    <ellipse
       ry="9.7261639"
       rx="10.156241"
       cy="258.89236"
       cx="11.221803"
       id="path5902-5"
       style="opacity:0.972;fill:#0f5e9f;fill-opacity:0.98785424;stroke:none;stroke-width:1.03296459;stroke-linecap:round;stroke-linejoin:round;stroke-miterlimit:4;stroke-dasharray:none;stroke-dashoffset:0;stroke-opacity:1;paint-order:stroke fill markers" />
    <ellipse
       ry="9.7261639"
       rx="10.156241"
       cy="261.40948"
       cx="36.078316"
       id="path5902-5-4"
       style="opacity:0.972;fill:#0f96bb;fill-opacity:0.74349443;stroke:none;stroke-width:1.03296459;stroke-linecap:round;stroke-linejoin:round;stroke-miterlimit:4;stroke-dasharray:none;stroke-dashoffset:0;stroke-opacity:1;paint-order:stroke fill markers" />
    <ellipse
       ry="9.7261639"
       rx="10.156241"
       cy="282.41876"
       cx="20.258432"
       id="path5902-5-0"
       style="opacity:0.972;fill:#0faa9f;fill-opacity:0.98785424;stroke:none;stroke-width:1.03296459;stroke-linecap:round;stroke-linejoin:round;stroke-miterlimit:4;stroke-dasharray:none;stroke-dashoffset:0;stroke-opacity:1;paint-order:stroke fill markers" />
  </g>
</svg>
